<svg width="90" height="21" viewBox="0 0 90 21" fill="none" xmlns="http://www.w3.org/2000/svg">
<path d="M78.3577 4.37455H81.6955L83.8041 10.6567C83.8707 10.8565 83.9273 11.0596 83.974 11.266C84.0206 11.4724 84.0606 11.6854 84.0939 11.9052C84.1272 12.1249 84.1538 12.3546 84.1738 12.5943H84.2338C84.2738 12.2348 84.3271 11.8985 84.3937 11.5856C84.467 11.2726 84.5569 10.963 84.6635 10.6567L86.7321 4.37455H90L85.2731 16.9689C84.9866 17.7412 84.6135 18.3838 84.1539 18.8965C83.6942 19.4158 83.1645 19.8053 82.5649 20.065C81.972 20.3247 81.3191 20.4545 80.6062 20.4545C80.2598 20.4545 79.96 20.4346 79.7068 20.3946C79.4536 20.3613 79.2371 20.3247 79.0572 20.2847V17.8678C79.1971 17.901 79.3737 17.931 79.5869 17.9576C79.8001 17.9843 80.0233 17.9976 80.2564 17.9976C80.6828 17.9976 81.0492 17.9077 81.3557 17.7279C81.6622 17.5482 81.9187 17.3051 82.1252 16.9988C82.3317 16.6992 82.495 16.3696 82.6149 16.0101L82.7948 15.4608L78.3577 4.37455Z" fill="#1A1A1A"/>
<path d="M77.2221 15.5407H74.1741V0H77.2221V15.5407Z" fill="#1A1A1A"/>
<path d="M70.9935 13.3135C71.3267 13.3135 71.6498 13.2802 71.9629 13.2136C72.2827 13.147 72.5991 13.0638 72.9123 12.9639V15.2311C72.5858 15.3776 72.1794 15.4974 71.6931 15.5906C71.2134 15.6905 70.6871 15.7404 70.1141 15.7404C69.4479 15.7404 68.8483 15.6339 68.3153 15.4208C67.789 15.2011 67.3726 14.8249 67.0662 14.2922C66.7663 13.7529 66.6164 13.0038 66.6164 12.045V6.66174H65.1574V5.37334L66.8363 4.35461L67.7157 1.99755H69.6644V4.37459H72.7923V6.66174H69.6644V12.045C69.6644 12.4712 69.7843 12.7908 70.0242 13.0038C70.2707 13.2103 70.5938 13.3135 70.9935 13.3135Z" fill="#1A1A1A"/>
<path d="M64.0218 12.2248C64.0218 12.9839 63.8419 13.6264 63.4822 14.1524C63.1291 14.6718 62.5994 15.068 61.8932 15.341C61.187 15.6073 60.3076 15.7405 59.255 15.7405C58.4755 15.7405 57.8059 15.6905 57.2463 15.5906C56.6933 15.4908 56.1337 15.3243 55.5674 15.0913V12.5744C56.1737 12.8474 56.8233 13.0738 57.5161 13.2536C58.2157 13.4267 58.8286 13.5132 59.3549 13.5132C59.9478 13.5132 60.3709 13.4267 60.6241 13.2536C60.8839 13.0738 61.0138 12.8407 61.0138 12.5544C61.0138 12.368 60.9605 12.2015 60.8539 12.055C60.754 11.9019 60.5341 11.7321 60.1943 11.5457C59.8546 11.3526 59.3216 11.1029 58.5954 10.7966C57.8959 10.5036 57.3196 10.2073 56.8666 9.90772C56.4202 9.60809 56.0871 9.2552 55.8672 8.84904C55.654 8.43622 55.5474 7.91354 55.5474 7.28099C55.5474 6.24894 55.9472 5.47324 56.7466 4.95389C57.5528 4.42788 58.6287 4.16487 59.9745 4.16487C60.6674 4.16487 61.3269 4.23478 61.9532 4.37461C62.5861 4.51443 63.2357 4.73749 63.9019 5.04378L62.9825 7.24104C62.4295 7.00134 61.9065 6.80492 61.4135 6.65177C60.9272 6.49863 60.4309 6.42206 59.9245 6.42206C59.4782 6.42206 59.1417 6.48199 58.9152 6.60184C58.6887 6.72169 58.5754 6.90479 58.5754 7.15115C58.5754 7.33093 58.632 7.49073 58.7453 7.63055C58.8652 7.77038 59.0917 7.92685 59.4249 8.09997C59.7646 8.26643 60.261 8.48283 60.9139 8.74916C61.5468 9.00884 62.0964 9.28183 62.5628 9.56814C63.0291 9.84779 63.3889 10.1974 63.6421 10.6168C63.8952 11.0297 64.0218 11.5657 64.0218 12.2248Z" fill="#1A1A1A"/>
<path d="M49.0266 4.16487C50.0593 4.16487 50.9487 4.36462 51.6948 4.76412C52.441 5.15697 53.0173 5.72959 53.4237 6.48198C53.8301 7.23438 54.0333 8.15324 54.0333 9.23855V10.7167H46.8281C46.8614 11.5756 47.1179 12.2515 47.5976 12.7442C48.0839 13.2302 48.7568 13.4733 49.6162 13.4733C50.3291 13.4733 50.982 13.4 51.5749 13.2536C52.1679 13.1071 52.7775 12.8873 53.4037 12.5944V14.9514C52.8507 15.2244 52.2711 15.4242 51.6649 15.5507C51.0653 15.6772 50.3357 15.7405 49.4763 15.7405C48.3571 15.7405 47.3644 15.534 46.4983 15.1212C45.6389 14.7084 44.9627 14.0792 44.4697 13.2336C43.9833 12.388 43.7401 11.3226 43.7401 10.0376C43.7401 8.73252 43.96 7.6472 44.3997 6.78161C44.8461 5.90936 45.4657 5.25684 46.2585 4.82405C47.0513 4.3846 47.974 4.16487 49.0266 4.16487ZM49.0466 6.33217C48.4537 6.33217 47.9607 6.52194 47.5676 6.90146C47.1812 7.28099 46.958 7.87691 46.898 8.68924H51.1752C51.1685 8.23647 51.0852 7.83364 50.9254 7.48074C50.7721 7.12785 50.5389 6.8482 50.2258 6.64179C49.9194 6.43538 49.5263 6.33217 49.0466 6.33217Z" fill="#1A1A1A"/>
<path d="M42.226 4.37455V15.5407H39.8876L39.4779 14.1124H39.318C39.0781 14.492 38.7783 14.8016 38.4186 15.0413C38.0588 15.281 37.6624 15.4574 37.2293 15.5706C36.7963 15.6838 36.3466 15.7404 35.8802 15.7404C35.0808 15.7404 34.3846 15.6006 33.7916 15.3209C33.1987 15.0346 32.7357 14.5918 32.4026 13.9926C32.0761 13.3933 31.9129 12.6143 31.9129 11.6555V4.37455H34.9609V10.8964C34.9609 11.6954 35.1041 12.298 35.3906 12.7042C35.677 13.1103 36.1334 13.3134 36.7597 13.3134C37.3792 13.3134 37.8656 13.1736 38.2187 12.8939C38.5718 12.6076 38.8183 12.1915 38.9582 11.6455C39.1048 11.0929 39.1781 10.4204 39.1781 9.62801V4.37455H42.226Z" fill="#1A1A1A"/>
<path d="M27.3408 20.4546V15.7704C27.3408 15.4908 27.3508 15.2111 27.3708 14.9315C27.3975 14.6452 27.4308 14.3655 27.4708 14.0925H27.3408C27.0544 14.5519 26.658 14.9415 26.1516 15.2611C25.652 15.5807 24.9924 15.7405 24.173 15.7405C22.9138 15.7405 21.8945 15.2544 21.115 14.2823C20.3422 13.3035 19.9558 11.8686 19.9558 9.97763C19.9558 8.70588 20.1356 7.64054 20.4954 6.78161C20.8552 5.91602 21.3548 5.2635 21.9944 4.82405C22.6406 4.3846 23.3868 4.16487 24.2329 4.16487C25.0524 4.16487 25.7153 4.32467 26.2216 4.64427C26.7346 4.95722 27.151 5.3434 27.4708 5.80283H27.5507L27.8205 4.37461H30.3988V20.4546H27.3408ZM25.2622 13.3534C25.8219 13.3534 26.2649 13.2436 26.5913 13.0238C26.9245 12.8041 27.1643 12.4745 27.3109 12.0351C27.4574 11.589 27.5374 11.033 27.5507 10.3671V9.99761C27.5507 8.91229 27.3842 8.08332 27.051 7.5107C26.7179 6.93143 26.105 6.64179 25.2123 6.64179C24.4861 6.64179 23.9464 6.93143 23.5933 7.5107C23.2402 8.08998 23.0637 8.92561 23.0637 10.0176C23.0637 11.1295 23.2436 11.9652 23.6033 12.5245C23.9631 13.0771 24.5161 13.3534 25.2622 13.3534Z" fill="#1A1A1A"/>
<path d="M13.4349 4.16487C14.4676 4.16487 15.357 4.36462 16.1032 4.76412C16.8493 5.15697 17.4256 5.72959 17.832 6.48198C18.2384 7.23438 18.4416 8.15324 18.4416 9.23855V10.7167H11.2364C11.2697 11.5756 11.5262 12.2515 12.0059 12.7442C12.4922 13.2302 13.1651 13.4733 14.0245 13.4733C14.7374 13.4733 15.3903 13.4 15.9832 13.2536C16.5762 13.1071 17.1858 12.8873 17.812 12.5944V14.9514C17.2591 15.2244 16.6794 15.4242 16.0732 15.5507C15.4736 15.6772 14.7441 15.7405 13.8846 15.7405C12.7654 15.7405 11.7727 15.534 10.9066 15.1212C10.0472 14.7084 9.37098 14.0792 8.87797 13.2336C8.39163 12.388 8.14846 11.3226 8.14846 10.0376C8.14846 8.73252 8.36831 7.6472 8.80802 6.78161C9.25439 5.90936 9.87398 5.25684 10.6668 4.82405C11.4596 4.3846 12.3823 4.16487 13.4349 4.16487ZM13.4549 6.33217C12.862 6.33217 12.369 6.52194 11.9759 6.90146C11.5895 7.28099 11.3663 7.87691 11.3064 8.68924H15.5835C15.5768 8.23647 15.4936 7.83364 15.3337 7.48074C15.1804 7.12785 14.9473 6.8482 14.6341 6.64179C14.3277 6.43538 13.9346 6.33217 13.4549 6.33217Z" fill="#1A1A1A"/>
<path d="M6.23585 4.16487C6.38908 4.16487 6.56563 4.17486 6.7655 4.19483C6.97203 4.20815 7.13858 4.22813 7.26517 4.25476L7.03532 7.1112C6.93539 7.07791 6.79215 7.05461 6.60561 7.04129C6.42573 7.02131 6.26916 7.01133 6.13592 7.01133C5.74285 7.01133 5.35977 7.06126 4.98668 7.16114C4.62026 7.26102 4.29048 7.42415 3.99734 7.65053C3.7042 7.87026 3.47102 8.16323 3.29781 8.52944C3.13125 8.88899 3.04797 9.33177 3.04797 9.85778V15.5407H0V4.37461H2.30846L2.75817 6.25227H2.90807C3.12792 5.87274 3.40107 5.52651 3.72752 5.21356C4.06063 4.89396 4.43705 4.64094 4.85677 4.45451C5.28315 4.26142 5.74285 4.16487 6.23585 4.16487Z" fill="#1A1A1A"/>
</svg>
