<svg width="20" height="20" viewBox="0 0 20 20" fill="none" xmlns="http://www.w3.org/2000/svg">
<path d="M10.0001 1.66669C8.90573 1.66669 7.8221 1.88224 6.81105 2.30102C5.8 2.71981 4.88135 3.33364 4.10752 4.10746C2.54472 5.67027 1.66675 7.78988 1.66675 10C1.66675 13.6834 4.05841 16.8084 7.36675 17.9167C7.78341 17.9834 7.91675 17.725 7.91675 17.5V16.0917C5.60841 16.5917 5.11675 14.975 5.11675 14.975C4.73341 14.0084 4.19175 13.75 4.19175 13.75C3.43341 13.2334 4.25008 13.25 4.25008 13.25C5.08341 13.3084 5.52508 14.1084 5.52508 14.1084C6.25008 15.375 7.47508 15 7.95008 14.8C8.02508 14.2584 8.24175 13.8917 8.47508 13.6834C6.62508 13.475 4.68341 12.7584 4.68341 9.58336C4.68341 8.65836 5.00008 7.91669 5.54175 7.32502C5.45841 7.11669 5.16675 6.25002 5.62508 5.12502C5.62508 5.12502 6.32508 4.90002 7.91675 5.97502C8.57508 5.79169 9.29175 5.70002 10.0001 5.70002C10.7084 5.70002 11.4251 5.79169 12.0834 5.97502C13.6751 4.90002 14.3751 5.12502 14.3751 5.12502C14.8334 6.25002 14.5417 7.11669 14.4584 7.32502C15.0001 7.91669 15.3167 8.65836 15.3167 9.58336C15.3167 12.7667 13.3667 13.4667 11.5084 13.675C11.8084 13.9334 12.0834 14.4417 12.0834 15.2167V17.5C12.0834 17.725 12.2167 17.9917 12.6417 17.9167C15.9501 16.8 18.3334 13.6834 18.3334 10C18.3334 8.90567 18.1179 7.82204 17.6991 6.81099C17.2803 5.79995 16.6665 4.88129 15.8926 4.10746C15.1188 3.33364 14.2002 2.71981 13.1891 2.30102C12.1781 1.88224 11.0944 1.66669 10.0001 1.66669Z" fill="#1A1A1A"/>
</svg>
