<svg width="20" height="20" viewBox="0 0 20 20" fill="none" xmlns="http://www.w3.org/2000/svg">
<path d="M10 1.66675C8.90567 1.66675 7.82204 1.8823 6.81099 2.30109C5.79994 2.71987 4.88128 3.3337 4.10746 4.10753C2.54466 5.67033 1.66669 7.78995 1.66669 10.0001C1.66669 13.6834 4.05835 16.8084 7.36669 17.9168C7.78335 17.9834 7.91669 17.7251 7.91669 17.5001V16.0918C5.60835 16.5918 5.11669 14.9751 5.11669 14.9751C4.73335 14.0084 4.19169 13.7501 4.19169 13.7501C3.43335 13.2334 4.25002 13.2501 4.25002 13.2501C5.08335 13.3084 5.52502 14.1084 5.52502 14.1084C6.25002 15.3751 7.47502 15.0001 7.95002 14.8001C8.02502 14.2584 8.24169 13.8918 8.47502 13.6834C6.62502 13.4751 4.68335 12.7584 4.68335 9.58342C4.68335 8.65842 5.00002 7.91675 5.54169 7.32508C5.45835 7.11675 5.16669 6.25008 5.62502 5.12508C5.62502 5.12508 6.32502 4.90008 7.91669 5.97508C8.57502 5.79175 9.29169 5.70008 10 5.70008C10.7084 5.70008 11.425 5.79175 12.0834 5.97508C13.675 4.90008 14.375 5.12508 14.375 5.12508C14.8334 6.25008 14.5417 7.11675 14.4584 7.32508C15 7.91675 15.3167 8.65842 15.3167 9.58342C15.3167 12.7668 13.3667 13.4668 11.5084 13.6751C11.8084 13.9334 12.0834 14.4418 12.0834 15.2168V17.5001C12.0834 17.7251 12.2167 17.9918 12.6417 17.9168C15.95 16.8001 18.3333 13.6834 18.3333 10.0001C18.3333 8.90573 18.1178 7.8221 17.699 6.81105C17.2802 5.80001 16.6664 4.88135 15.8926 4.10753C15.1188 3.3337 14.2001 2.71987 13.189 2.30109C12.178 1.8823 11.0944 1.66675 10 1.66675Z" fill="#1A1A1A"/>
</svg>
