<svg width="90" height="21" viewBox="0 0 90 21" fill="none" xmlns="http://www.w3.org/2000/svg">
<path d="M78.3577 4.37455H81.6955L83.8041 10.6567C83.8707 10.8565 83.9274 11.0596 83.974 11.266C84.0206 11.4724 84.0606 11.6855 84.0939 11.9052C84.1272 12.1249 84.1539 12.3546 84.1739 12.5943H84.2338C84.2738 12.2348 84.3271 11.8985 84.3937 11.5856C84.467 11.2726 84.557 10.963 84.6636 10.6567L86.7322 4.37455H90L85.2731 16.9689C84.9867 17.7413 84.6136 18.3838 84.1539 18.8965C83.6942 19.4158 83.1645 19.8053 82.5649 20.065C81.972 20.3247 81.3191 20.4545 80.6063 20.4545C80.2598 20.4545 79.96 20.4346 79.7068 20.3946C79.4537 20.3613 79.2372 20.3247 79.0573 20.2848V17.8678C79.1972 17.9011 79.3737 17.931 79.5869 17.9577C79.8001 17.9843 80.0233 17.9976 80.2565 17.9976C80.6829 17.9976 81.0493 17.9077 81.3557 17.7279C81.6622 17.5482 81.9187 17.3051 82.1252 16.9988C82.3318 16.6992 82.495 16.3696 82.6149 16.0101L82.7948 15.4608L78.3577 4.37455Z" fill="#1A1A1A"/>
<path d="M77.2221 15.5407H74.1741V0H77.2221V15.5407Z" fill="#1A1A1A"/>
<path d="M70.9936 13.3135C71.3267 13.3135 71.6499 13.2802 71.963 13.2136C72.2828 13.147 72.5992 13.0638 72.9124 12.9639V15.2311C72.5859 15.3776 72.1795 15.4974 71.6932 15.5906C71.2135 15.6905 70.6872 15.7404 70.1142 15.7404C69.448 15.7404 68.8484 15.6339 68.3154 15.4208C67.7891 15.2011 67.3727 14.8249 67.0662 14.2922C66.7664 13.7529 66.6165 13.0038 66.6165 12.045V6.66174H65.1575V5.37335L66.8364 4.35461L67.7158 1.99755H69.6645V4.37459H72.7924V6.66174H69.6645V12.045C69.6645 12.4712 69.7844 12.7908 70.0243 13.0038C70.2708 13.2103 70.5939 13.3135 70.9936 13.3135Z" fill="#1A1A1A"/>
<path d="M64.0219 12.2248C64.0219 12.9839 63.842 13.6264 63.4822 14.1524C63.1291 14.6718 62.5995 15.068 61.8933 15.341C61.1871 15.6073 60.3077 15.7405 59.255 15.7405C58.4755 15.7405 57.806 15.6905 57.2464 15.5907C56.6934 15.4908 56.1338 15.3243 55.5675 15.0913V12.5744C56.1737 12.8474 56.8233 13.0738 57.5162 13.2536C58.2157 13.4267 58.8286 13.5132 59.355 13.5132C59.9479 13.5132 60.371 13.4267 60.6241 13.2536C60.8839 13.0738 61.0139 12.8407 61.0139 12.5544C61.0139 12.368 60.9606 12.2015 60.854 12.0551C60.754 11.9019 60.5342 11.7321 60.1944 11.5457C59.8546 11.3526 59.3217 11.1029 58.5955 10.7966C57.8959 10.5036 57.3196 10.2074 56.8666 9.90772C56.4202 9.6081 56.0871 9.2552 55.8673 8.84904C55.6541 8.43622 55.5475 7.91354 55.5475 7.28099C55.5475 6.24894 55.9472 5.47324 56.7467 4.95389C57.5528 4.42788 58.6288 4.16487 59.9746 4.16487C60.6674 4.16487 61.327 4.23479 61.9532 4.37461C62.5862 4.51444 63.2357 4.73749 63.9019 5.04378L62.9825 7.24104C62.4296 7.00134 61.9066 6.80492 61.4136 6.65178C60.9273 6.49863 60.4309 6.42206 59.9246 6.42206C59.4782 6.42206 59.1418 6.48199 58.9153 6.60184C58.6887 6.72169 58.5755 6.9048 58.5755 7.15116C58.5755 7.33093 58.6321 7.49073 58.7454 7.63056C58.8653 7.77039 59.0918 7.92686 59.4249 8.09997C59.7647 8.26643 60.261 8.48283 60.9139 8.74917C61.5468 9.00884 62.0965 9.28184 62.5628 9.56815C63.0292 9.8478 63.389 10.1974 63.6421 10.6168C63.8953 11.0297 64.0219 11.5657 64.0219 12.2248Z" fill="#1A1A1A"/>
<path d="M49.0267 4.16487C50.0593 4.16487 50.9487 4.36462 51.6949 4.76413C52.4411 5.15697 53.0174 5.72959 53.4238 6.48199C53.8302 7.23438 54.0333 8.15324 54.0333 9.23856V10.7167H46.8281C46.8614 11.5756 47.1179 12.2515 47.5976 12.7442C48.084 13.2303 48.7569 13.4733 49.6163 13.4733C50.3291 13.4733 50.982 13.4 51.575 13.2536C52.1679 13.1071 52.7775 12.8873 53.4038 12.5944V14.9514C52.8508 15.2244 52.2712 15.4242 51.6649 15.5507C51.0653 15.6772 50.3358 15.7405 49.4764 15.7405C48.3571 15.7405 47.3644 15.5341 46.4984 15.1212C45.6389 14.7084 44.9627 14.0792 44.4697 13.2336C43.9834 12.388 43.7402 11.3226 43.7402 10.0376C43.7402 8.73252 43.96 7.6472 44.3997 6.78162C44.8461 5.90937 45.4657 5.25685 46.2585 4.82405C47.0513 4.3846 47.974 4.16487 49.0267 4.16487ZM49.0467 6.33217C48.4537 6.33217 47.9607 6.52194 47.5676 6.90147C47.1812 7.28099 46.958 7.87692 46.8981 8.68924H51.1752C51.1686 8.23647 51.0853 7.83364 50.9254 7.48075C50.7722 7.12785 50.539 6.8482 50.2259 6.64179C49.9194 6.43538 49.5263 6.33217 49.0467 6.33217Z" fill="#1A1A1A"/>
<path d="M42.2261 4.37455V15.5407H39.8876L39.4779 14.1124H39.318C39.0782 14.492 38.7784 14.8016 38.4186 15.0413C38.0588 15.281 37.6624 15.4574 37.2294 15.5706C36.7963 15.6838 36.3466 15.7404 35.8803 15.7404C35.0808 15.7404 34.3846 15.6006 33.7917 15.3209C33.1987 15.0346 32.7357 14.5918 32.4026 13.9926C32.0762 13.3933 31.9129 12.6143 31.9129 11.6555V4.37455H34.9609V10.8964C34.9609 11.6954 35.1041 12.298 35.3906 12.7042C35.6771 13.1103 36.1335 13.3134 36.7597 13.3134C37.3793 13.3134 37.8656 13.1736 38.2187 12.894C38.5718 12.6076 38.8183 12.1915 38.9582 11.6455C39.1048 11.0929 39.1781 10.4204 39.1781 9.62802V4.37455H42.2261Z" fill="#1A1A1A"/>
<path d="M27.3408 20.4546V15.7704C27.3408 15.4908 27.3508 15.2111 27.3708 14.9315C27.3975 14.6452 27.4308 14.3655 27.4708 14.0925H27.3408C27.0544 14.5519 26.658 14.9415 26.1516 15.2611C25.652 15.5807 24.9924 15.7405 24.1729 15.7405C22.9138 15.7405 21.8945 15.2544 21.115 14.2823C20.3422 13.3035 19.9558 11.8686 19.9558 9.97764C19.9558 8.70589 20.1356 7.64055 20.4954 6.78162C20.8552 5.91603 21.3548 5.2635 21.9944 4.82405C22.6406 4.3846 23.3868 4.16487 24.2329 4.16487C25.0524 4.16487 25.7153 4.32467 26.2216 4.64428C26.7346 4.95722 27.151 5.34341 27.4708 5.80283H27.5507L27.8205 4.37461H30.3988V20.4546H27.3408ZM25.2622 13.3534C25.8219 13.3534 26.2649 13.2436 26.5913 13.0238C26.9245 12.8041 27.1643 12.4745 27.3109 12.0351C27.4574 11.589 27.5374 11.033 27.5507 10.3672V9.99761C27.5507 8.9123 27.3841 8.08333 27.051 7.51071C26.7179 6.93143 26.105 6.64179 25.2123 6.64179C24.4861 6.64179 23.9464 6.93143 23.5933 7.51071C23.2402 8.08999 23.0637 8.92561 23.0637 10.0176C23.0637 11.1295 23.2436 11.9652 23.6033 12.5245C23.9631 13.0771 24.5161 13.3534 25.2622 13.3534Z" fill="#1A1A1A"/>
<path d="M13.4349 4.16487C14.4675 4.16487 15.3569 4.36462 16.1031 4.76413C16.8493 5.15697 17.4256 5.72959 17.832 6.48199C18.2384 7.23438 18.4416 8.15324 18.4416 9.23856V10.7167H11.2363C11.2697 11.5756 11.5262 12.2515 12.0058 12.7442C12.4922 13.2303 13.1651 13.4733 14.0245 13.4733C14.7374 13.4733 15.3903 13.4 15.9832 13.2536C16.5761 13.1071 17.1857 12.8873 17.812 12.5944V14.9514C17.259 15.2244 16.6794 15.4242 16.0731 15.5507C15.4735 15.6772 14.744 15.7405 13.8846 15.7405C12.7653 15.7405 11.7727 15.5341 10.9066 15.1212C10.0471 14.7084 9.37092 14.0792 8.87791 13.2336C8.39157 12.388 8.1484 11.3226 8.1484 10.0376C8.1484 8.73252 8.36825 7.6472 8.80796 6.78162C9.25433 5.90937 9.87392 5.25685 10.6667 4.82405C11.4595 4.3846 12.3823 4.16487 13.4349 4.16487ZM13.4549 6.33217C12.8619 6.33217 12.3689 6.52194 11.9759 6.90147C11.5894 7.28099 11.3663 7.87692 11.3063 8.68924H15.5835C15.5768 8.23647 15.4935 7.83364 15.3336 7.48075C15.1804 7.12785 14.9472 6.8482 14.6341 6.64179C14.3276 6.43538 13.9346 6.33217 13.4549 6.33217Z" fill="#1A1A1A"/>
<path d="M6.23586 4.16487C6.38909 4.16487 6.56564 4.17486 6.7655 4.19483C6.97203 4.20815 7.13859 4.22813 7.26517 4.25476L7.03532 7.11121C6.93539 7.07791 6.79215 7.05461 6.60561 7.04129C6.42573 7.02132 6.26917 7.01133 6.13592 7.01133C5.74285 7.01133 5.35977 7.06127 4.98669 7.16114C4.62026 7.26102 4.29048 7.42415 3.99734 7.65053C3.7042 7.87026 3.47103 8.16323 3.29781 8.52944C3.13125 8.88899 3.04797 9.33178 3.04797 9.85779V15.5407H0V4.37461H2.30847L2.75817 6.25227H2.90807C3.12792 5.87275 3.40107 5.52651 3.72752 5.21357C4.06063 4.89397 4.43705 4.64095 4.85677 4.45451C5.28316 4.26142 5.74285 4.16487 6.23586 4.16487Z" fill="#1A1A1A"/>
</svg>
